<svg width="3060" height="3960" xmlns="http://www.w3.org/2000/svg" version="1.2" baseProfile="tiny"><path fill="#fff" fill-rule="evenodd" d="M0 0h3060v3960H0V0"/><path class="StaffLines" fill="none" stroke="#000" stroke-width="2.73" stroke-linejoin="bevel" d="M336.599 634.199H2847.4M336.599 658.999H2847.4M336.599 683.799H2847.4M336.599 708.599H2847.4M336.599 733.399H2847.4M336.599 894.599H2847.4M336.599 919.399H2847.4M336.599 944.199H2847.4M336.599 968.999H2847.4M336.599 993.799H2847.4"/><path class="Text" d="M976.88 382.034v15.687c0 3.563 0 3.703-.422 4.344-.563.688-1.891.969-5.891.969h-1.25v3.297h22.953v-3.297h-1.25c-4 0-5.328-.281-5.89-.969-.422-.641-.422-.703-.422-4.344v-33.328c0-3.64 0-3.703.422-4.344.64-.765 1.89-.968 5.89-.968h1.25v-3.297h-22.672v3.297h.969c4 0 5.25.203 5.891.968.422.641.422.782.422 4.344v13.86h-23.454v-13.86c0-3.562 0-3.703.485-4.344.562-.765 1.812-.968 5.812-.968h1.328v-3.297H938.02v3.297h1.266c3.984 0 5.25.203 5.875.968.422.641.422.782.422 4.344v33.328c0 3.5 0 3.703-.422 4.344-.563.688-1.891.969-5.875.969h-1.266v3.297h23.031v-3.297h-1.328c-4-.063-5.25-.281-5.812-.969-.485-.641-.485-.781-.485-4.344v-15.687h23.454m48.98 1.75c0-4.406-.76-6.641-2.79-8.328-2.32-1.891-5.74-2.797-10.22-2.797-7.91 0-13.658 3.703-13.658 8.812 0 2.594 1.608 4.282 4.058 4.282 2.24 0 3.79-1.469 3.79-3.579 0-.906-.35-1.89-1.05-2.859-.42-.5-.5-.641-.5-.984 0-1.407 2.81-2.657 6.17-2.657 2.24 0 4.69.688 5.81 1.75 1.33 1.11 1.82 2.797 1.82 5.938v2.734c-7.29 1.266-9.6 1.828-13.02 3.157-6.09 2.234-8.969 5.453-8.969 9.937 0 5.047 3.919 8.188 10.159 8.188 4.83 0 9.17-1.954 12.17-5.532 1.12 3.578 2.87 4.969 6.17 4.969 3.14 0 6.44-2.031 6.44-4.062 0-.485-.28-.829-.7-.829-.29 0-.57.063-1.05.282-.99.422-1.41.484-1.97.484-1.95 0-2.66-1.266-2.66-4.828v-14.078m-6.57 8.547c0 4.203-.21 5.172-1.41 7-1.75 2.593-4.89 4.343-7.97 4.343-3.22 0-5.53-2.312-5.53-5.468 0-2.938 1.47-5.032 4.55-6.5 2.17-.985 4.9-1.688 10.36-2.594v3.219m27.84-18.625l-12.11.765v3.016h2.52c2.67.078 3.01.484 3.01 3.5v20.016c-.08 1.062-.14 1.484-.42 1.828-.48.625-1.81.906-4.83.984h-.28v2.516h17.72v-2.516h-.28c-4.71-.141-5.33-.5-5.33-3.016V390.44c0-3.437.48-6.578 1.27-8.187 1.46-3.157 4.6-5.329 7.62-5.329 1.83 0 3.92.985 4.97 2.454 1.05 1.546 1.55 3.64 1.55 7v14.625c-.08 1.062-.14 1.484-.43 1.828-.48.625-1.89.906-4.9.984h-.28v2.516h17.72v-2.516h-.29c-4.62-.141-5.25-.5-5.25-3.016v-14.078c0-5.031-.2-6.297-1.46-8.672-1.75-3.359-5.25-5.39-9.46-5.39-4.54 0-7.98 2.094-11.06 6.719v-5.672m55.37 33.109l12.18-.484v-3.016h-1.25c-4-.203-4.35-.625-4.35-5.109v-43.469l-13.72.766v3.015h4.13c2.66.063 3.01.485 3.01 3.5v15.813c-2.59-3.563-5.6-5.172-9.67-5.172-7.9 0-13.92 7.625-13.92 17.703 0 9.953 5.81 17.016 13.92 17.016 4.42 0 7.42-1.891 9.67-6.094v5.531m-8.26-30.375c2.87 0 5.59 2.094 6.86 5.313.9 2.109 1.33 4.968 1.33 8.406 0 8.187-3.22 13.437-8.27 13.437-4.97 0-7.91-4.609-7.91-12.39 0-4.203.43-7.344 1.33-9.657 1.19-3.156 3.78-5.109 6.66-5.109m49.12-3.5h-2.43l-2.03 2.516c-2.54-1.953-5.05-2.797-8.55-2.797-6.16 0-10.22 3.984-10.22 10.156 0 6.578 4.27 8.25 9.87 9.578l3.71.844c5.53 1.328 7.48 2.734 7.48 5.531 0 3.297-2.86 5.61-6.92 5.61-5.95 0-10.16-3.782-11.83-10.782h-2.79v13.219h2.43l2.46-2.859c2.87 2.312 6.01 3.422 9.59 3.422 6.86 0 11.41-4.266 11.41-10.782 0-3.078-.97-5.453-2.94-7.062-1.67-1.469-3.08-2.031-7.35-2.938l-3.5-.781c-3.85-.844-3.85-.844-5.1-1.531-1.55-.703-2.46-2.172-2.46-3.719 0-2.875 2.66-4.828 6.5-4.828 5.75 0 8.55 4.062 10.24 8.969h2.43V372.94m68.88-17.156h-41.94l-1.05 19.469h3.02c.98-7.079 2.86-16.172 11.83-16.172 2.31 0 3.3.765 3.3 2.515v36.125c0 3.563 0 3.703-.43 4.344-.56.688-1.89.969-5.89.969h-1.81v3.297h24.02v-3.297h-1.83c-3.92 0-5.25-.281-5.81-.969-.43-.641-.43-.781-.43-4.344v-36.125c0-1.75.99-2.515 3.3-2.515 8.95 0 10.78 9.172 11.77 16.172h3l-1.05-19.469m18.12 16.875c-8.61 0-15.26 7.625-15.26 17.437 0 9.578 6.72 17.282 15.12 17.282 8.41 0 15.13-7.704 15.13-17.36 0-9.594-6.72-17.359-14.99-17.359m0 3.015c4.91 0 7.63 5.11 7.63 14.344 0 9.313-2.72 14.36-7.77 14.36-5.03 0-7.76-5.047-7.76-14.282 0-9.531 2.65-14.422 7.9-14.422m30.58 25.469c-3.84-.062-4.06-.14-4.89-.625-.5-.281-.84-1.047-.84-1.812 0-2.11 1.89-3.016 6.58-3.157 6.57-.14 7.62-.281 10.01-1.328 4.19-1.89 6.5-5.531 6.5-10.156 0-2.797-.62-4.547-2.51-6.859 1.18-1.266 1.82-1.672 2.37-1.672.36 0 .56.203.7.969.29 1.687 1.41 2.593 3.16 2.593 1.81 0 3.14-1.468 3.14-3.359 0-2.375-1.89-4.063-4.61-4.063-2.25 0-3.5.704-6.72 3.641-2.95-1.953-5.18-2.656-8.68-2.656-8.33 0-13.8 4.625-13.8 11.625 0 4.125 2.25 7.625 5.89 9.375-4.69 1.047-6.66 3.156-6.66 7 0 3.078 1.41 4.906 4.69 6.015-4.34 1.61-6.44 3.782-6.44 6.657 0 2.093 1.41 4.062 3.64 5.25 2.74 1.406 6.1 1.968 11.13 1.968 11.7 0 17.51-3.718 17.51-11.062 0-3.5-1.62-6.313-4.14-7.359-1.89-.704-4.12-.985-8.89-.985h-7.14m4.14-25.469c4.33 0 6.78 3 6.78 8.469 0 5.453-2.65 8.75-7.06 8.75-4.34 0-7.08-3.297-7.08-8.547 0-5.531 2.66-8.672 7.36-8.672m-.64 31.5c5.81 0 6.24 0 7.22.141 2.86.281 4.55 1.813 4.55 4.063 0 3.984-4.55 6.296-12.33 6.296-5.94 0-9.23-1.75-9.23-4.906 0-2.312 1.26-3.844 4.62-5.594h5.17m52.14-16.593c.08-10.5-5.87-17.922-14.42-17.922-8.95 0-15.67 7.765-15.67 18.265 0 9.875 6.37 16.454 15.81 16.454 6.74 0 11.42-3.282 14.28-9.938l-2.43-1.328c-2.88 5.391-5.82 7.484-10.5 7.484-3.58 0-6.18-1.468-7.99-4.609-1.26-2.109-1.83-4.563-1.75-8.406h22.67m-22.61-3.016c0-4.891 2.25-11.891 8.13-11.891 4.2 0 7 3.704 7 9.375 0 1.954-.63 2.516-2.88 2.516h-12.25m37.22-13.859v-13.86h-2.86c-.7 9.094-3.78 13.719-9.45 14.141v2.734h5.73v17.844c0 4.906.14 6.656.85 8.266 1.12 2.937 3.92 4.547 7.98 4.547 6.3 0 10.36-4.75 10.36-12.172 0-.422 0-.922-.08-1.61h-2.93c-.21 6.297-2.04 9.516-5.46 9.516-1.61 0-3.01-.844-3.5-2.031-.42-.985-.64-2.735-.64-5.25v-19.11h10.3v-3.015h-10.3m27.58-18.969l-12.95.766v3.015h3.36c2.67.063 3.01.485 3.01 3.5v39.063c-.08.984-.14 1.406-.42 1.75-.48.625-1.81.906-4.83.984h-.28v2.516h17.72v-2.516h-.28c-4.7-.141-5.33-.5-5.33-3.016V390.44c0-3.437.48-6.578 1.27-8.187 1.53-3.157 4.61-5.329 7.62-5.329 1.83 0 3.92 1.047 4.91 2.454 1.11 1.546 1.61 3.64 1.61 7.078v14.625c-.08.984-.14 1.406-.43 1.75-.48.625-1.89.906-4.9.984h-.28v2.516h17.72v-2.516h-.29c-4.62-.141-5.25-.5-5.25-3.016v-14.078c0-5.031-.2-6.297-1.46-8.672-1.75-3.437-5.25-5.39-9.46-5.39-4.54 0-7.9 2.031-11.06 6.719v-24.641m61.31 35.844c.08-10.5-5.87-17.922-14.42-17.922-8.95 0-15.67 7.765-15.67 18.265 0 9.875 6.37 16.454 15.81 16.454 6.74 0 11.42-3.282 14.28-9.938l-2.43-1.328c-2.88 5.391-5.82 7.484-10.5 7.484-3.58 0-6.18-1.468-7.99-4.609-1.26-2.109-1.83-4.563-1.75-8.406h22.67m-22.61-3.016c0-4.891 2.25-11.891 8.13-11.891 4.2 0 7 3.704 7 9.375 0 1.954-.63 2.516-2.88 2.516h-12.25m38.91-13.859l-12.39.765v3.016h2.87c2.66.078 3 .484 3 3.5v20.016c-.06 1.062-.14 1.484-.4 1.828-.5.625-1.89.906-4.91.984h-.28v2.516h18.69v-2.516h-1.25c-4.71-.141-5.33-.5-5.33-3.016v-3.781c.08-11.765 4.27-20.719 9.73-21-.98 1.125-1.26 1.813-1.26 3.156 0 2.235 1.61 3.844 3.86 3.844 2.58 0 4.26-1.89 4.26-4.687 0-3.438-2.37-5.672-6.09-5.672-4.41 0-8.19 3.5-10.5 9.734v-8.687m39.61 13.156v5.812h17.44v-5.812h-17.44m67.33-32.125c-14.78 0-24.36 12.109-24.36 26.391 0 13.937 9.58 26.25 24.08 26.25 13.71 0 24.07-11.344 24.07-26.313 0-14.844-10.36-26.328-23.79-26.328m-.08 3.281c4.7 0 8.61 2.172 11.14 6.031 2.59 4.125 3.5 8.391 3.5 17.016 0 8.531-.91 12.797-3.5 17-2.53 3.922-6.38 6.031-11.34 6.031-4.97 0-8.83-2.031-11.35-6.031-2.65-4.203-3.5-8.469-3.5-17.141 0-8.484.91-12.671 3.5-16.875 2.6-4.062 6.3-6.031 11.55-6.031m41.09 15.688l-12.12.765v3.016h2.53c2.66.078 3 .484 3 3.5v34.234c-.06.985-.14 1.407-.41 1.75-.5.625-1.83.907-4.84.985h-.28v2.515h18.2v-2.515h-.76c-4.69-.141-5.32-.5-5.32-3.016v-13.234c2.3 4.062 4.89 5.672 9.24 5.672 9.31 0 14.14-9.172 14.14-17.5 0-7.907-4.83-17.219-13.72-17.219-4.34 0-7.22 1.812-9.66 6.015v-4.968m8.39 2.734c4.83 0 7.64 4.828 7.64 13.016 0 9.031-2.81 14.14-7.84 14.14-5.05 0-8.27-5.172-8.27-13.234 0-8.75 3.16-13.922 8.47-13.922m31.78-2.734l-12.12.765v3.016h2.53c2.66.078 3 .484 3 3.5v34.234c-.06.985-.14 1.407-.41 1.75-.5.625-1.82.907-4.84.985h-.28v2.515h18.2v-2.515h-.76c-4.69-.141-5.32-.5-5.32-3.016v-13.234c2.3 4.062 4.9 5.672 9.24 5.672 9.31 0 14.14-9.172 14.14-17.5 0-7.907-4.83-17.219-13.72-17.219-4.34 0-7.22 1.812-9.66 6.015v-4.968m8.4 2.734c4.82 0 7.64 4.828 7.64 13.016 0 9.031-2.82 14.14-7.85 14.14-5.04 0-8.26-5.172-8.26-13.234 0-8.75 3.15-13.922 8.47-13.922m35.34-3.781c-8.61 0-15.27 7.625-15.27 17.437 0 9.578 6.72 17.282 15.13 17.282 8.4 0 15.12-7.704 15.12-17.36 0-9.594-6.72-17.359-14.98-17.359m0 3.015c4.91 0 7.62 5.11 7.62 14.344 0 9.313-2.71 14.36-7.76 14.36-5.03 0-7.77-5.047-7.77-14.282 0-9.531 2.66-14.422 7.91-14.422m44.64-2.734h-2.44l-2.03 2.516c-2.53-1.953-5.05-2.797-8.55-2.797-6.15 0-10.21 3.984-10.21 10.156 0 6.578 4.26 8.25 9.87 9.578l3.7.844c5.53 1.328 7.49 2.734 7.49 5.531 0 3.297-2.86 5.61-6.92 5.61-5.96 0-10.16-3.782-11.83-10.782h-2.8v13.219h2.44l2.45-2.859c2.88 2.312 6.02 3.422 9.6 3.422 6.85 0 11.4-4.266 11.4-10.782 0-3.078-.97-5.453-2.94-7.062-1.67-1.469-3.07-2.031-7.34-2.938l-3.5-.781c-3.86-.844-3.86-.844-5.11-1.531-1.55-.703-2.45-2.172-2.45-3.719 0-2.875 2.65-4.828 6.5-4.828 5.75 0 8.54 4.062 10.23 8.969h2.44V372.94m16.23-16.672c-2.23 0-4.04 1.828-4.04 4.063 0 2.25 1.81 4.062 3.98 4.062 2.31 0 4.13-1.812 4.13-4.062a4.07 4.07 0 00-4.07-4.063m3.3 17.438l-13.16.765v3.016h3.57c2.65.078 3.01.484 3.01 3.5v20.016c-.08 1.062-.14 1.484-.42 1.828-.48.625-1.83.906-4.83.984h-.5v2.516h18.14v-2.516h-.5c-4.68-.141-5.31-.5-5.31-3.016v-27.093m21.2 0v-13.86h-2.86c-.7 9.094-3.78 13.719-9.45 14.141v2.734h5.74v17.844c0 4.906.14 6.656.84 8.266 1.12 2.937 3.92 4.547 7.98 4.547 6.3 0 10.36-4.75 10.36-12.172 0-.422 0-.922-.07-1.61h-2.94c-.21 6.297-2.03 9.516-5.46 9.516-1.6 0-3.01-.844-3.5-2.031-.42-.985-.64-2.735-.64-5.25v-19.11h10.3v-3.015h-10.3m46.68 16.875c.07-10.5-5.88-17.922-14.43-17.922-8.95 0-15.67 7.765-15.67 18.265 0 9.875 6.38 16.454 15.81 16.454 6.74 0 11.43-3.282 14.29-9.938l-2.44-1.328c-2.88 5.391-5.81 7.484-10.5 7.484-3.58 0-6.17-1.468-7.99-4.609-1.26-2.109-1.82-4.563-1.75-8.406h22.68m-22.61-3.016c0-4.891 2.25-11.891 8.12-11.891 4.2 0 7 3.704 7 9.375 0 1.954-.62 2.516-2.87 2.516h-12.25m46.53 18.766h23.51c6.24 0 11-.985 14.71-3.078 7.07-4 11-11.969 11-22.469 0-9.672-3.5-17.235-9.96-21.422-3.84-2.453-9.03-3.578-17-3.578h-22.26v3.297h1.33c3.92.062 5.25.281 5.81.968.42.641.42.782.42 4.344v33.328c0 3.563 0 3.703-.42 4.344-.56.688-1.89.906-5.81.969h-1.33v3.297m19.39-3.297c-3.56 0-3.99-.406-3.99-3.844v-36.187c0-3.438.49-3.922 3.99-3.922h3.64c11.97 0 16.94 6.5 16.94 21.984 0 15.672-4.47 21.969-15.82 21.969h-4.76m44.15-46.766c-2.23 0-4.04 1.828-4.04 4.063 0 2.25 1.81 4.062 3.98 4.062 2.31 0 4.13-1.812 4.13-4.062a4.07 4.07 0 00-4.07-4.063m3.3 17.438l-13.15.765v3.016h3.56c2.65.078 3.01.484 3.01 3.5v20.016c-.07 1.062-.14 1.484-.42 1.828-.48.625-1.83.906-4.83.984h-.5v2.516h18.14v-2.516h-.5c-4.68-.141-5.31-.5-5.31-3.016v-27.093m21.49 0l-12.39.765v3.016h2.87c2.66.078 3 .484 3 3.5v20.016c-.06 1.062-.14 1.484-.41 1.828-.5.625-1.89.906-4.9.984h-.28v2.516h18.68v-2.516h-1.25c-4.7-.141-5.32-.5-5.32-3.016v-3.781c.07-11.765 4.26-20.719 9.73-21-.98 1.125-1.27 1.813-1.27 3.156 0 2.235 1.61 3.844 3.86 3.844 2.58 0 4.27-1.89 4.27-4.687 0-3.438-2.38-5.672-6.09-5.672-4.41 0-8.19 3.5-10.5 9.734v-8.687m49.34 16.875c.08-10.5-5.88-17.922-14.42-17.922-8.96 0-15.67 7.765-15.67 18.265 0 9.875 6.37 16.454 15.81 16.454 6.73 0 11.42-3.282 14.28-9.938l-2.44-1.328c-2.87 5.391-5.81 7.484-10.5 7.484-3.58 0-6.17-1.468-7.98-4.609-1.27-2.109-1.83-4.563-1.75-8.406h22.67m-22.61-3.016c0-4.891 2.25-11.891 8.13-11.891 4.2 0 7 3.704 7 9.375 0 1.954-.63 2.516-2.88 2.516h-12.25m52.14 8.469c-2.23 5.047-4.62 7.078-8.26 7.078-5.6 0-9.1-5.109-9.1-13.297 0-8.547 3.42-14.141 8.61-14.141 2.09 0 3.92.969 3.92 2.094 0 .203-.08.422-.42.844-1.12 1.328-1.41 2.031-1.41 3.219 0 2.312 1.75 3.922 4.21 3.922 2.51 0 4.26-1.969 4.26-4.766 0-4.766-4.68-8.328-10.92-8.328-9.09 0-15.61 7.422-15.61 17.922 0 9.937 5.96 16.797 14.64 16.797 6.24 0 9.8-2.86 12.82-10.282l-2.74-1.062m17.7-22.328v-13.86h-2.86c-.7 9.094-3.78 13.719-9.45 14.141v2.734h5.74v17.844c0 4.906.14 6.656.84 8.266 1.12 2.937 3.92 4.547 7.98 4.547 6.3 0 10.36-4.75 10.36-12.172 0-.422 0-.922-.07-1.61h-2.94c-.21 6.297-2.03 9.516-5.46 9.516-1.6 0-3.01-.844-3.5-2.031-.42-.985-.64-2.735-.64-5.25v-19.11h10.3v-3.015h-10.3m24.77-17.438c-2.23 0-4.05 1.828-4.05 4.063 0 2.25 1.82 4.062 3.99 4.062 2.31 0 4.12-1.812 4.12-4.062a4.062 4.062 0 00-4.06-4.063m3.3 17.438l-13.16.765v3.016h3.56c2.66.078 3.02.484 3.02 3.5v20.016c-.08 1.062-.14 1.484-.42 1.828-.49.625-1.83.906-4.83.984h-.5v2.516h18.14v-2.516h-.5c-4.69-.141-5.31-.5-5.31-3.016v-27.093m25.26-1.047c-8.61 0-15.26 7.625-15.26 17.437 0 9.578 6.72 17.282 15.12 17.282 8.41 0 15.13-7.704 15.13-17.36 0-9.594-6.72-17.359-14.99-17.359m0 3.015c4.91 0 7.63 5.11 7.63 14.344 0 9.313-2.72 14.36-7.77 14.36-5.03 0-7.76-5.047-7.76-14.282 0-9.531 2.65-14.422 7.9-14.422m31.35-1.968l-12.11.765v3.016h2.51c2.67.078 3.02.484 3.02 3.5v20.016c-.08 1.062-.14 1.484-.42 1.828-.49.625-1.82.906-4.83.984h-.28v2.516h17.72v-2.516h-.29c-4.7-.141-5.32-.5-5.32-3.016V390.44c0-3.437.48-6.578 1.26-8.187 1.47-3.157 4.61-5.329 7.63-5.329 1.82 0 3.92.985 4.97 2.454 1.04 1.546 1.54 3.64 1.54 7v14.625c-.08 1.062-.14 1.484-.42 1.828-.48.625-1.89.906-4.91.984h-.28v2.516h17.72v-2.516h-.28c-4.62-.141-5.25-.5-5.25-3.016v-14.078c0-5.031-.2-6.297-1.47-8.672-1.75-3.359-5.25-5.39-9.45-5.39-4.55 0-7.99 2.094-11.06 6.719v-5.672M850.536 229.583c5.937 1.437 8.906 1.875 13.297 1.875 9.359 0 16.172-3.188 19.812-9.344 1.203-1.984 1.641-3.094 1.641-3.969 0-.656-.219-.984-.875-.984-.328 0-.766.109-1.438.437-5.39 2.313-8.25 2.86-14.625 2.86-7.047 0-11.437-.657-22.656-3.297-.437 9.234-1.437 21-2.969 34.64-2.312 2.422-3.078 3.86-3.078 5.61 0 2.312 1.422 3.75 3.516 3.75 2.859 0 4.515-2.313 4.953-6.719 3.844-2.75 7.469-3.953 11.875-3.953 9.906 0 15.734 7.484 15.734 20.125 0 11.437-3.64 20.906-16.39 20.906-6.61 0-13.422-3.406-13.422-6.828 0-.766.656-1.641 1.984-2.406 3.406-2.094 4.391-3.531 4.391-6.5 0-3.844-2.969-6.813-6.922-6.813-4.406 0-7.922 4.063-7.922 9.235 0 5.5 3.188 11 8.141 14.406 3.734 2.422 8.14 3.641 13.968 3.641 17.266 0 28.157-10.125 28.157-26.297 0-14.953-9.907-24.969-24.86-24.969-4.734 0-8.14.766-14.187 3.297l1.875-18.703m47.734 34.437v9.125h27.391v-9.125H898.27m56.75-48.844h-22.656v5.172h2.75c6.266.219 8.359.985 10.109 3.625v46.75c0 14.969-2.078 18.157-12.75 18.703v5.172h31.344v-5.172c-10.562-.546-12.641-3.734-12.641-18.703v-40.812l49.044 66.234h4.63v-57.094c0-14.968 2.09-18.156 12.76-18.703v-5.172h-31.355v5.172c10.562.547 12.656 3.625 12.656 18.703v34.532l-43.891-58.407m89.86 26.516c-13.53 0-23.98 11.984-23.98 27.391 0 15.062 10.56 27.172 23.76 27.172 13.2 0 23.77-12.11 23.77-27.282 0-15.078-10.57-27.281-23.55-27.281m0 4.719c7.7 0 11.98 8.031 11.98 22.562 0 14.625-4.28 22.547-12.2 22.547-7.92 0-12.2-7.922-12.2-22.437 0-14.969 4.17-22.672 12.42-22.672m46.41-3.078v-21.782h-4.52c-1.09 14.313-5.94 21.563-14.84 22.235v4.281h9.01v28.047c0 7.703.22 10.453 1.31 12.984 1.77 4.625 6.18 7.157 12.55 7.157 9.91 0 16.28-7.485 16.28-19.141 0-.672 0-1.438-.11-2.531h-4.62c-.33 9.89-3.19 14.953-8.58 14.953-2.53 0-4.73-1.313-5.5-3.188-.66-1.547-.98-4.297-.98-8.25v-30.031h16.17v-4.734h-16.17m73.36 26.515c.1-16.5-9.25-28.156-22.68-28.156-14.07 0-24.64 12.203-24.64 28.703 0 15.516 10.02 25.86 24.86 25.86 10.56 0 17.94-5.172 22.46-15.625l-3.86-2.094c-4.5 8.469-9.13 11.765-16.5 11.765-5.61 0-9.68-2.296-12.54-7.25-1.98-3.296-2.85-7.156-2.75-13.203h35.65m-35.54-4.734c0-7.703 3.52-18.703 12.75-18.703 6.61 0 11 5.844 11 14.75 0 3.078-.98 3.953-4.5 3.953h-19.25m130-50.594h-4.07l-4.39 6.594c-5.29-4.953-12.22-7.594-20.04-7.594-14.51 0-24.07 9.141-24.07 23 0 11.985 5.93 17.922 22.11 22.11l10.45 2.64c8.14 2.094 8.9 2.313 11.22 4.063 3.29 2.531 5.06 6.172 5.06 10.453 0 4.406-1.66 8.031-4.95 11.109-3.64 3.078-7.27 4.297-13.32 4.297-16.61 0-24.86-12.219-27.71-27.062h-4.74l.44 31.343h4.3l4.95-7.468c7.36 6.046 13.4 8.25 23.09 8.25 16.17 0 26.52-9.469 26.52-24.204 0-6.937-2.21-12.656-6.61-16.828-2.97-2.859-7.25-4.734-16.06-6.937l-11.77-2.969c-9.78-2.531-14.41-6.812-14.41-13.531 0-7.703 6.27-12.985 15.63-12.985 14.19 0 22 11.782 24.97 24.313h4.72l-1.32-28.594m52.89 63.906c-3.51 7.922-7.25 11.11-12.96 11.11-8.8 0-14.3-8.031-14.3-20.891 0-13.422 5.39-22.234 13.51-22.234 3.32 0 6.18 1.547 6.18 3.312 0 .328-.11.657-.68 1.313-1.75 2.094-2.18 3.187-2.18 5.062 0 3.625 2.75 6.157 6.59 6.157 3.97 0 6.72-3.079 6.72-7.469 0-7.485-7.38-13.094-17.17-13.094-14.3 0-24.53 11.656-24.53 28.156 0 15.625 9.36 26.407 23 26.407 9.78 0 15.39-4.516 20.12-16.172l-4.3-1.657m56.1-19.25c0-6.921-1.2-10.453-4.41-13.093-3.62-2.969-9.01-4.391-16.04-4.391-12.44 0-21.46 5.828-21.46 13.859 0 4.063 2.53 6.704 6.38 6.704 3.51 0 5.93-2.313 5.93-5.61 0-1.422-.54-2.969-1.64-4.5-.67-.781-.78-1-.78-1.547 0-2.203 4.41-4.187 9.69-4.187 3.52 0 7.38 1.109 9.13 2.75 2.09 1.765 2.85 4.406 2.85 9.359v4.281c-11.43 1.985-15.06 2.86-20.45 4.954-9.58 3.531-14.08 8.578-14.08 15.625 0 7.921 6.16 12.875 15.96 12.875 7.57 0 14.4-3.094 19.14-8.704 1.75 5.61 4.5 7.813 9.67 7.813 4.95 0 10.12-3.188 10.12-6.375 0-.766-.43-1.328-1.11-1.328-.43 0-.87.125-1.64.453-1.54.656-2.2.766-3.07.766-3.1 0-4.19-1.985-4.19-7.594v-22.11m-10.35 13.422c0 6.594-.32 8.141-2.18 11-2.75 4.063-7.71 6.813-12.55 6.813-5.06 0-8.69-3.625-8.69-8.578 0-4.61 2.32-7.922 7.14-10.219 3.43-1.547 7.71-2.641 16.28-4.078v5.062m44.22-59.078l-20.34 1.219v4.734h5.39c4.06.11 4.61.766 4.61 5.5v61.266c-.11 1.656-.22 2.312-.66 2.859-.76.985-2.86 1.438-7.59 1.547h-.77v3.953h28.49v-3.953h-.77c-7.36-.234-8.36-.781-8.36-4.734V213.52m63.36 56.328c.11-16.5-9.25-28.156-22.67-28.156-14.08 0-24.64 12.203-24.64 28.703 0 15.516 10.02 25.86 24.86 25.86 10.56 0 17.94-5.172 22.45-15.625l-3.86-2.094c-4.5 8.469-9.12 11.765-16.5 11.765-5.61 0-9.67-2.296-12.53-7.25-1.98-3.296-2.86-7.156-2.75-13.203h35.64m-35.53-4.734c0-7.703 3.52-18.703 12.75-18.703 6.61 0 11 5.844 11 14.75 0 3.078-.98 3.953-4.5 3.953h-19.25m140.24-50.703h-4.19l-4.41 6.484c-8.01-5.828-12.09-7.375-19.69-7.375-10.45 0-19.35 4.406-26.71 13.203-7.05 8.36-10.35 17.61-10.35 28.938 0 23.75 15.5 40.594 37.17 40.594 17.61 0 28.83-10.344 31.36-28.829l-5.17-.875c-2.97 16.391-11.33 24.532-24.86 24.532-16.28 0-23.98-11.219-23.98-34.985 0-12.547 1.65-20.797 5.39-27.39 3.4-6.157 10.12-10.016 17.26-10.016 7.71 0 14.54 4.078 18.71 11.109 2.09 3.641 3.62 7.704 6.26 16.391h4.85l-1.64-31.781m66.96 44.875h12.43c9.9 0 15.07-.766 19.59-2.86 7.69-3.734 12.09-10.781 12.09-19.468 0-17.485-15.4-21.782-29.81-21.782h-38.5v5.172h1.99c6.26.11 8.36.438 9.23 1.547.66.985.66 1.203.66 6.813v52.359c0 5.609 0 5.828-.66 6.828-.87 1.094-2.97 1.531-9.23 1.531h-1.99v5.172h36.97v-5.172h-2.86c-6.28 0-8.37-.437-9.25-1.531-.66-1-.66-1.219-.66-6.828v-21.781m0-5.172v-28.156c0-5.063.55-5.61 6.71-5.61h7.04c11.44 0 16.83 5.391 16.83 17.047 0 11.328-5.61 16.719-17.26 16.719H1637m70.61-12.422c-13.53 0-23.98 11.984-23.98 27.391 0 15.062 10.56 27.172 23.77 27.172 13.2 0 23.76-12.11 23.76-27.282 0-15.078-10.56-27.281-23.55-27.281m0 4.719c7.71 0 11.99 8.031 11.99 22.562 0 14.625-4.28 22.547-12.2 22.547-7.93 0-12.21-7.922-12.21-22.437 0-14.969 4.17-22.672 12.42-22.672m70.18-4.281h-3.86l-3.19 3.953c-3.95-3.078-7.92-4.391-13.42-4.391-9.67 0-16.07 6.266-16.07 15.953 0 10.328 6.72 12.969 15.52 15.063l5.83 1.328c8.69 2.078 11.76 4.281 11.76 8.687 0 5.172-4.5 8.797-10.89 8.797-9.34 0-15.93-5.937-18.57-16.937h-4.41v20.781h3.84l3.86-4.5c4.5 3.625 9.46 5.391 15.06 5.391 10.79 0 17.94-6.719 17.94-16.954 0-4.828-1.54-8.578-4.62-11.109-2.64-2.297-4.85-3.187-11.55-4.609l-5.5-1.219c-6.05-1.313-6.05-1.313-8.03-2.422-2.42-1.094-3.84-3.406-3.84-5.828 0-4.5 4.17-7.578 10.21-7.578 9.04 0 13.43 6.375 16.07 14.078h3.86V242.13m25.5-26.188c-3.52 0-6.38 2.859-6.38 6.391 0 3.515 2.86 6.375 6.27 6.375 3.64 0 6.5-2.86 6.5-6.375a6.388 6.388 0 00-6.39-6.391m5.17 27.391l-20.67 1.218v4.735h5.61c4.17.109 4.71.765 4.71 5.5v31.453c-.11 1.656-.21 2.312-.65 2.859-.77.985-2.86 1.438-7.6 1.547h-.76v3.953h28.5v-3.953h-.78c-7.36-.234-8.36-.781-8.36-4.734v-42.578m33.33 0v-21.782h-4.52c-1.09 14.313-5.94 21.563-14.84 22.235v4.281h9.01v28.047c0 7.703.22 10.453 1.31 12.984 1.77 4.625 6.18 7.157 12.55 7.157 9.91 0 16.28-7.485 16.28-19.141 0-.672 0-1.438-.11-2.531h-4.62c-.33 9.89-3.19 14.953-8.58 14.953-2.53 0-4.73-1.313-5.5-3.188-.66-1.547-.98-4.297-.98-8.25v-30.031h16.17v-4.734h-16.17m38.92-27.391c-3.52 0-6.38 2.859-6.38 6.391 0 3.515 2.86 6.375 6.27 6.375 3.64 0 6.5-2.86 6.5-6.375a6.388 6.388 0 00-6.39-6.391m5.17 27.391l-20.67 1.218v4.735h5.61c4.17.109 4.72.765 4.72 5.5v31.453c-.11 1.656-.22 2.312-.66 2.859-.77.985-2.86 1.438-7.59 1.547h-.77v3.953h28.5v-3.953h-.78c-7.36-.234-8.36-.781-8.36-4.734v-42.578m39.7-1.641c-13.53 0-23.98 11.984-23.98 27.391 0 15.062 10.56 27.172 23.76 27.172 13.21 0 23.77-12.11 23.77-27.282 0-15.078-10.56-27.281-23.55-27.281m0 4.719c7.71 0 11.99 8.031 11.99 22.562 0 14.625-4.28 22.547-12.21 22.547-7.92 0-12.2-7.922-12.2-22.437 0-14.969 4.17-22.672 12.42-22.672m49.27-3.078l-19.03 1.218v4.735h3.97c4.17.109 4.71.765 4.71 5.5v31.453c-.1 1.656-.21 2.312-.65 2.859-.77.985-2.86 1.438-7.6 1.547h-.43v3.953h27.83v-3.953h-.44c-7.38-.234-8.36-.781-8.36-4.734V269.63c0-5.391.76-10.344 1.98-12.875 2.32-4.954 7.25-8.36 11.99-8.36 2.86 0 6.15 1.547 7.81 3.86 1.66 2.406 2.42 5.718 2.42 11v22.984c-.11 1.656-.22 2.312-.65 2.859-.79.985-2.99 1.438-7.71 1.547h-.44v3.953h27.83v-3.953h-.43c-7.27-.234-8.25-.781-8.25-4.734v-22.11c0-7.921-.35-9.906-2.32-13.64-2.75-5.281-8.25-8.469-14.86-8.469-7.14 0-12.53 3.297-17.37 10.563v-8.922m140.01 13.093v24.641c0 5.609 0 5.828-.65 6.828-.88 1.094-2.97 1.531-9.24 1.531h-1.98v5.172h36.08v-5.172h-1.99c-6.26 0-8.36-.437-9.23-1.531-.66-1-.66-1.109-.66-6.828v-52.359c0-5.719 0-5.828.66-6.813.98-1.219 2.97-1.547 9.23-1.547h1.99v-5.172h-35.64v5.172h1.54c6.27 0 8.25.328 9.24 1.547.65.985.65 1.203.65 6.813v21.781h-36.84v-21.781c0-5.61 0-5.828.77-6.813.89-1.219 2.86-1.547 9.14-1.547h2.07v-5.172h-36.18v5.172h1.98c6.27 0 8.25.328 9.24 1.547.65.985.65 1.203.65 6.813v52.359c0 5.5 0 5.828-.65 6.828-.88 1.094-2.97 1.531-9.24 1.531h-1.98v5.172H2090v-5.172h-2.07c-6.28-.109-8.25-.437-9.14-1.531-.77-1-.77-1.219-.77-6.828v-24.641h36.84m98.57-41.25h-65.89l-1.64 30.579h4.71c1.55-11.11 4.52-25.407 18.6-25.407 3.64 0 5.17 1.203 5.17 3.953v56.766c0 5.609 0 5.828-.66 6.828-.87 1.094-2.97 1.531-9.23 1.531h-2.88v5.172h37.74v-5.172h-2.86c-6.16 0-8.25-.437-9.13-1.531-.65-1-.65-1.219-.65-6.828v-56.766c0-2.75 1.53-3.953 5.15-3.953 14.1 0 16.96 14.407 18.49 25.407h4.73l-1.65-30.579"/><path class="BarLine" fill="none" stroke="#000" stroke-width="4.46" stroke-linejoin="bevel" d="M2321.16 632.835v261.764M1163.94 632.835v261.764M338.831 632.835v261.764M2822.35 632.835v261.764"/><path class="BarLine" fill="none" stroke="#000" stroke-width="13.64" stroke-linejoin="bevel" d="M2840.58 632.835v261.764"/><path class="BarLine" fill="none" stroke="#000" stroke-width="4.46" stroke-linejoin="bevel" d="M1665.13 632.835v261.764M2321.16 893.235v101.928M1163.94 893.235v101.928M1665.13 893.235v101.928M2822.35 893.235v101.928"/><path class="BarLine" fill="none" stroke="#000" stroke-width="13.64" stroke-linejoin="bevel" d="M2840.58 893.235v101.928"/><path class="BarLine" fill="none" stroke="#000" stroke-width="4.46" stroke-linejoin="bevel" d="M338.831 893.235v101.928"/><path class="LedgerLine" fill="none" stroke="#000" stroke-width="3.97" stroke-linejoin="bevel" d="M2579.69 758.199h48.6M2347.45 758.199h48.6M534.201 758.199h48.6"/><path class="Stem" fill="none" stroke="#000" stroke-width="2.48" stroke-linejoin="bevel" d="M1229.4 704.631v-82.832M2195.09 741.831v-82.832M1461.65 704.631v-82.832M2040.26 729.431v-82.832M1037.87 717.031v-82.832M1730.6 704.631v-82.832M1885.43 717.031v-82.832M573.377 754.231v-82.832M883.038 729.431v-82.832M2618.87 754.231v-82.832M2386.62 754.231v-82.832M728.207 741.831v-82.832M1461.65 952.631v-76.632M543.625 911.166v82.633M2010.51 935.966v76.434M1229.4 952.631v-76.632M2356.87 911.166v82.633M2589.12 911.166v82.633M698.455 923.566v82.634M1730.6 952.631v-76.632M2165.34 923.566v82.634M1008.12 948.366v70.234M1855.68 948.366v70.234M853.285 935.966v76.434"/><path class="Note" d="M1699.61 712.769c0 4.262 3.069 9.02 11.113 9.02 10.308 0 21.127-8.431 21.127-17.158 0-5.859-4.96-9.13-11.113-9.13-9.626 0-21.127 8.138-21.127 17.268M2609.007 745.102c-9.626 0-21.127 8.044-21.127 17.267 0 4.262 3.069 9.02 11.113 9.02 10.308 0 21.127-8.431 21.127-17.158 0-5.859-4.96-9.13-11.113-9.13m-13.687 21.623c-3.27 0-3.968-2.666-3.968-3.565 0-4.867 16.663-13.392 21.328-13.392 2.387 0 3.968 1.395 3.968 3.565 0 4.96-16.77 13.392-21.328 13.392M1854.44 725.169c0 4.262 3.069 9.02 11.113 9.02 10.308 0 21.127-8.431 21.127-17.158 0-5.859-4.96-9.13-11.113-9.13-9.626 0-21.127 8.138-21.127 17.268M542.385 762.369c0 4.262 3.069 9.02 11.113 9.02 10.308 0 21.127-8.431 21.127-17.158 0-5.859-4.96-9.13-11.113-9.13-9.626 0-21.127 8.138-21.127 17.268M852.045 737.569c0 4.262 3.069 9.02 11.113 9.02 10.308 0 21.127-8.431 21.127-17.158 0-5.859-4.96-9.13-11.113-9.13-9.626 0-21.127 8.138-21.127 17.268M2009.27 737.569c0 4.262 3.069 9.02 11.113 9.02 10.308 0 21.127-8.431 21.127-17.158 0-5.859-4.96-9.13-11.113-9.13-9.626 0-21.127 8.138-21.127 17.268M1451.787 695.502c-9.626 0-21.127 8.044-21.127 17.267 0 4.262 3.069 9.02 11.113 9.02 10.308 0 21.127-8.431 21.127-17.158 0-5.859-4.96-9.13-11.113-9.13m-13.687 21.623c-3.27 0-3.968-2.666-3.968-3.565 0-4.867 16.663-13.392 21.328-13.392 2.387 0 3.968 1.395 3.968 3.565 0 4.96-16.77 13.392-21.328 13.392M1219.537 695.502c-9.626 0-21.127 8.044-21.127 17.267 0 4.262 3.069 9.02 11.113 9.02 10.308 0 21.127-8.431 21.127-17.158 0-5.859-4.96-9.13-11.113-9.13m-13.687 21.623c-3.27 0-3.968-2.666-3.968-3.565 0-4.867 16.663-13.392 21.328-13.392 2.387 0 3.968 1.395 3.968 3.565 0 4.96-16.77 13.392-21.328 13.392M2376.757 745.102c-9.626 0-21.127 8.044-21.127 17.267 0 4.262 3.069 9.02 11.113 9.02 10.308 0 21.127-8.431 21.127-17.158 0-5.859-4.96-9.13-11.113-9.13m-13.687 21.623c-3.27 0-3.968-2.666-3.968-3.565 0-4.867 16.663-13.392 21.328-13.392 2.387 0 3.968 1.395 3.968 3.565 0 4.96-16.77 13.392-21.328 13.392M697.215 749.969c0 4.262 3.069 9.02 11.113 9.02 10.308 0 21.127-8.431 21.127-17.158 0-5.859-4.96-9.13-11.113-9.13-9.626 0-21.127 8.138-21.127 17.268M2164.1 749.969c0 4.262 3.069 9.02 11.113 9.02 10.308 0 21.127-8.431 21.127-17.158 0-5.859-4.96-9.13-11.113-9.13-9.626 0-21.127 8.138-21.127 17.268M1006.88 725.169c0 4.262 3.069 9.02 11.113 9.02 10.308 0 21.127-8.431 21.127-17.158 0-5.859-4.96-9.13-11.113-9.13-9.626 0-21.127 8.138-21.127 17.268M2376.757 893.902c-9.626 0-21.127 8.044-21.127 17.267 0 4.262 3.069 9.02 11.113 9.02 10.308 0 21.127-8.431 21.127-17.158 0-5.859-4.96-9.13-11.113-9.13m-13.687 21.623c-3.27 0-3.968-2.666-3.968-3.565 0-4.867 16.663-13.392 21.328-13.392 2.387 0 3.968 1.395 3.968 3.565 0 4.96-16.77 13.392-21.328 13.392M2009.27 935.969c0 4.262 3.069 9.02 11.113 9.02 10.308 0 21.127-8.431 21.127-17.158 0-5.859-4.96-9.13-11.113-9.13-9.626 0-21.127 8.138-21.127 17.268M2609.007 893.902c-9.626 0-21.127 8.044-21.127 17.267 0 4.262 3.069 9.02 11.113 9.02 10.308 0 21.127-8.431 21.127-17.158 0-5.859-4.96-9.13-11.113-9.13m-13.687 21.623c-3.27 0-3.968-2.666-3.968-3.565 0-4.867 16.663-13.392 21.328-13.392 2.387 0 3.968 1.395 3.968 3.565 0 4.96-16.77 13.392-21.328 13.392M1854.44 948.369c0 4.262 3.069 9.02 11.113 9.02 10.308 0 21.127-8.431 21.127-17.158 0-5.859-4.96-9.13-11.113-9.13-9.626 0-21.127 8.138-21.127 17.268M2164.1 923.569c0 4.262 3.069 9.02 11.113 9.02 10.308 0 21.127-8.431 21.127-17.158 0-5.859-4.96-9.13-11.113-9.13-9.626 0-21.127 8.138-21.127 17.268M1451.787 943.502c-9.626 0-21.127 8.044-21.127 17.267 0 4.262 3.069 9.02 11.113 9.02 10.308 0 21.127-8.431 21.127-17.158 0-5.859-4.96-9.13-11.113-9.13m-13.687 21.623c-3.27 0-3.968-2.666-3.968-3.565 0-4.867 16.663-13.392 21.328-13.392 2.387 0 3.968 1.395 3.968 3.565 0 4.96-16.77 13.392-21.328 13.392M1219.537 943.502c-9.626 0-21.127 8.044-21.127 17.267 0 4.262 3.069 9.02 11.113 9.02 10.308 0 21.127-8.431 21.127-17.158 0-5.859-4.96-9.13-11.113-9.13m-13.687 21.623c-3.27 0-3.968-2.666-3.968-3.565 0-4.867 16.663-13.392 21.328-13.392 2.387 0 3.968 1.395 3.968 3.565 0 4.96-16.77 13.392-21.328 13.392M852.045 935.969c0 4.262 3.069 9.02 11.113 9.02 10.308 0 21.127-8.431 21.127-17.158 0-5.859-4.96-9.13-11.113-9.13-9.626 0-21.127 8.138-21.127 17.268M697.215 923.569c0 4.262 3.069 9.02 11.113 9.02 10.308 0 21.127-8.431 21.127-17.158 0-5.859-4.96-9.13-11.113-9.13-9.626 0-21.127 8.138-21.127 17.268M1006.88 948.369c0 4.262 3.069 9.02 11.113 9.02 10.308 0 21.127-8.431 21.127-17.158 0-5.859-4.96-9.13-11.113-9.13-9.626 0-21.127 8.138-21.127 17.268M542.385 911.169c0 4.262 3.069 9.02 11.113 9.02 10.308 0 21.127-8.431 21.127-17.158 0-5.859-4.96-9.13-11.113-9.13-9.626 0-21.127 8.138-21.127 17.268M1699.61 960.769c0 4.262 3.069 9.02 11.113 9.02 10.308 0 21.127-8.431 21.127-17.158 0-5.859-4.96-9.13-11.113-9.13-9.626 0-21.127 8.138-21.127 17.268"/><path class="Clef" d="M371.862 759.486c0 6.556 4.96 15.19 18.352 15.19 4.665 0 8.742-1.194 12.307-3.38 5.363-3.766 6.742-10.322 6.742-16.569 0-3.86-.589-8.323-1.58-13.98-.295-1.985-.9-4.96-1.489-8.836 9.719-3.177 16.957-13.299 16.957-23.514 0-14.973-10.617-25.094-25.094-25.094-.992-5.952-1.984-11.811-2.775-17.36 10.416-11.02 17.655-23.42 17.655-39.184 0-9.037-2.775-16.368-4.371-19.948-2.372-5.053-5.255-8.525-7.037-8.525-.698 0-3.767 1.193-7.037 5.053-6.355 7.548-8.138 20.242-8.138 28.566 0 5.363.496 10.23 2.186 21.343-.109.093-5.27 5.348-7.348 7.037-9.036 8.34-21.529 20.43-21.529 40.285 0 18.538 16.167 33.124 34.627 33.124 2.868 0 5.549-.295 7.828-.698 1.89 9.533 3.084 16.477 3.084 21.731 0 10.323-5.363 15.78-15.376 15.78-2.387 0-4.464-.497-4.665-.497-.093-.108-.295-.201-.295-.294 0-.202.202-.31.496-.31 4.666-.79 9.316-4.759 9.316-11.098 0-5.363-4.061-11.021-11.502-11.021-6.944 0-11.314 5.658-11.314 12.199M392.6 627.053c.899-3.968 5.456-14.384 10.617-14.384 1.488 0 3.86 4.759 3.86 11.703 0 10.323-7.626 18.057-14.477 24.8-.59-3.968-1.085-7.828-1.085-11.997 0-3.674.294-7.053 1.085-10.122m8.726 101.975c-1.984.403-3.86.604-5.75.604-14.183 0-26.288-9.92-26.288-24.908 0-12.09 8.525-22.909 17.267-30.458 1.674-1.488 3.27-2.867 4.758-4.355.884 5.347 1.581 10.013 2.279 14.09-9.037 2.68-15.175 12.198-15.175 21.529 0 6.944 5.456 16.461 13.392 16.461.79 0 1.69-.403 1.69-1.287 0-.898-.992-1.394-2.186-2.185-3.875-2.387-6.06-4.96-6.06-9.827 0-6.045 4.572-10.912 10.323-12.292l5.75 32.628m14.09-18.352c0 7.053-2.883 14.291-9.92 17.174-2.077-11.904-4.759-27.683-5.456-32.054 8.928 0 15.376 6.06 15.376 14.88M384.866 894.506c-7.548 0-13.594 4.356-13.702 4.356-5.843 4.262-9.61 10.818-9.61 18.057 0 7.239 4.154 12.601 11.501 12.601 6.355 0 11.315-4.262 11.315-10.819 0-5.657-4.96-10.307-10.524-10.307-1.194 0-2.279.186-3.178.496-.992.388-2.666 1.38-3.472 2.077.698-4.371 3.674-8.727 7.548-10.82 2.48-1.379 5.658-1.983 9.13-1.983 10.122 0 15.082 8.138 15.082 24.8 0 12.896-8.246 31.45-17.965 40.192-10.323 9.424-20.041 13.888-20.134 13.888 0 0-1.194.682-1.194 1.875 0 .202.093.295.093.496.31.992 1.194 1.194 1.891 1.194l.295-.093c.201 0 11.516-4.666 20.537-11.718 13.888-10.013 29.559-27.668 29.559-45.927 0-17.267-9.316-28.365-27.172-28.365m31.14 12.586c0 2.79 2.185 4.96 4.774 4.96 2.573 0 4.758-2.17 4.758-4.96 0-2.774-2.185-5.053-4.758-5.053-2.589 0-4.774 2.279-4.774 5.053m0 24.506c0 2.774 2.185 5.068 4.774 5.068 2.573 0 4.758-2.294 4.758-5.068 0-2.775-2.185-5.053-4.758-5.053-2.589 0-4.774 2.278-4.774 5.053"/><path class="TimeSig" d="M469.574 671.6v7.332h-8.231c-.697 0-1.395.604-1.395 1.395v1.891c0 .79.698 1.38 1.395 1.38h30.055c.806 0 1.395-.59 1.395-1.38v-1.891c0-.79-.59-1.395-1.395-1.395h-8.82V671.6h8.82c.806 0 1.395-.697 1.395-1.488v-1.89c0-.698-.59-1.38-1.395-1.38h-8.82v-15.779c0-.589-.294-1.085-.79-1.287l-1.194-.604c-.201-.093-.496-.186-.697-.186-.295.093-.698.186-.9.387l-9.02 8.231c-.295.31-.403.697-.403 1.1v8.138h-11.408s11.02-11.904 22.723-27.59c.403-.496.496-.992.496-1.38 0-.496-.202-.898-.295-.992l-2.185-2.185a1.497 1.497 0 00-.992-.403h-14.679c-.806 0-1.302.604-1.395 1.194 0 0-.496 7.346-3.069 15.375-2.588 8.045-5.564 13.005-8.137 16.663 0 0-.295.496-.295 1.1 0 .202 0 .388.093.59.403.697.992 1.782.992 1.782s.202.604 1.085.604h17.066M469.574 721.2v7.332h-8.231c-.697 0-1.395.604-1.395 1.395v1.891c0 .79.698 1.38 1.395 1.38h30.055c.806 0 1.395-.59 1.395-1.38v-1.891c0-.79-.59-1.395-1.395-1.395h-8.82V721.2h8.82c.806 0 1.395-.697 1.395-1.488v-1.89c0-.698-.59-1.38-1.395-1.38h-8.82v-15.779c0-.589-.294-1.085-.79-1.287l-1.194-.604c-.201-.093-.496-.186-.697-.186-.295.093-.698.186-.9.387l-9.02 8.231c-.295.31-.403.697-.403 1.1v8.138h-11.408s11.02-11.904 22.723-27.59c.403-.496.496-.992.496-1.38 0-.496-.202-.898-.295-.992l-2.185-2.185a1.497 1.497 0 00-.992-.403h-14.679c-.806 0-1.302.604-1.395 1.194 0 0-.496 7.346-3.069 15.375-2.588 8.045-5.564 13.005-8.137 16.663 0 0-.295.496-.295 1.1 0 .202 0 .388.093.59.403.697.992 1.782.992 1.782s.202.604 1.085.604h17.066M469.574 932v7.332h-8.231c-.697 0-1.395.604-1.395 1.395v1.891c0 .79.698 1.38 1.395 1.38h30.055c.806 0 1.395-.59 1.395-1.38v-1.891c0-.79-.59-1.395-1.395-1.395h-8.82V932h8.82c.806 0 1.395-.697 1.395-1.488v-1.89c0-.698-.59-1.38-1.395-1.38h-8.82v-15.779c0-.589-.294-1.085-.79-1.287l-1.194-.604c-.201-.093-.496-.186-.697-.186-.295.093-.698.186-.9.387l-9.02 8.231c-.295.31-.403.697-.403 1.1v8.138h-11.408s11.02-11.904 22.723-27.59c.403-.496.496-.992.496-1.38 0-.496-.202-.898-.295-.992l-2.185-2.185a1.497 1.497 0 00-.992-.403h-14.679c-.806 0-1.302.604-1.395 1.194 0 0-.496 7.346-3.069 15.375-2.588 8.045-5.564 13.005-8.137 16.663 0 0-.295.496-.295 1.1 0 .202 0 .388.093.59.403.697.992 1.782.992 1.782s.202.604 1.085.604h17.066M469.574 981.6v7.332h-8.231c-.697 0-1.395.604-1.395 1.395v1.891c0 .79.698 1.38 1.395 1.38h30.055c.806 0 1.395-.59 1.395-1.38v-1.891c0-.79-.59-1.395-1.395-1.395h-8.82V981.6h8.82c.806 0 1.395-.697 1.395-1.488v-1.89c0-.698-.59-1.38-1.395-1.38h-8.82v-15.779c0-.589-.294-1.085-.79-1.287l-1.194-.604c-.201-.093-.496-.186-.697-.186-.295.093-.698.186-.9.387l-9.02 8.231c-.295.31-.403.697-.403 1.1v8.138h-11.408s11.02-11.904 22.723-27.59c.403-.496.496-.992.496-1.38 0-.496-.202-.898-.295-.992l-2.185-2.185a1.497 1.497 0 00-.992-.403h-14.679c-.806 0-1.302.604-1.395 1.194 0 0-.496 7.346-3.069 15.375-2.588 8.045-5.564 13.005-8.137 16.663 0 0-.295.496-.295 1.1 0 .202 0 .388.093.59.403.697.992 1.782.992 1.782s.202.604 1.085.604h17.066"/><path class="Fingering" d="M2605.37 593.643c-1.36 1.64-5.03 2.875-8.72 2.953v1.734h3.51c2.33.031 2.57.266 2.49 2.516v16.031c0 2.047 0 2.125-.24 2.484-.32.391-1.07.563-3.32.563h-2.6v1.875h15.85v-1.875h-2.21c-2.25 0-3-.172-3.32-.563-.29-.359-.29-.406-.29-2.484v-16.516c0-2.234.1-4.125.29-6.718h-1.44M1873.77 593.643l-13.59 18.922v2.234h11.23v2.078c0 2.047 0 2.125-.23 2.484-.33.438-1.1.563-3.36.563h-.46v1.875h11.69v-1.875h-.15c-2.29 0-3.05-.125-3.36-.563-.25-.359-.25-.406-.25-2.484v-2.078h4.84v-2.234h-4.84v-10.922c0-5 0-5.125.2-8h-1.72m-2.36 18.922h-8.8l8.8-12.125v12.125M559.876 593.643c-1.36 1.64-5.032 2.875-8.719 2.953v1.734h3.516c2.328.031 2.562.266 2.484 2.516v16.031c0 2.047 0 2.125-.234 2.484-.329.391-1.079.563-3.329.563h-2.593v1.875h15.843v-1.875h-2.203c-2.25 0-3-.172-3.328-.563-.281-.359-.281-.406-.281-2.484v-16.516c0-2.234.094-4.125.281-6.718h-1.437M2373.12 593.643c-1.36 1.64-5.03 2.875-8.72 2.953v1.734h3.52c2.33.031 2.56.266 2.48 2.516v16.031c0 2.047 0 2.125-.23 2.484-.33.391-1.08.563-3.33.563h-2.59v1.875h15.84v-1.875h-2.2c-2.25 0-3-.172-3.33-.563-.28-.359-.28-.406-.28-2.484v-16.516c0-2.234.09-4.125.28-6.718h-1.44M722.534 613.158h-1.765l-.407 2.047c-.515 2.594-.828 2.828-3.312 2.828h-8.953c2.75-2.875 3.672-3.718 6.234-5.718 3.641-2.797 5.203-4.188 6.109-5.391 1.282-1.766 1.922-3.516 1.922-5.484 0-4.563-3.75-7.797-9-7.797-5.078 0-8.953 3.234-8.953 7.515 0 2.532 1.281 4.25 3.156 4.25 1.485 0 2.485-1 2.485-2.453 0-1-.563-1.906-1.406-2.265-1.469-.61-1.547-.688-1.547-1.204 0-.609.39-1.531.953-2.203 1-1.234 2.64-1.922 4.515-1.922 3.329 0 5.282 2.047 5.282 5.407 0 2.953-1.391 5.64-4.719 9.156-2.953 3.109-4.797 5.078-5.484 5.844-1.438 1.672-2.157 2.593-3.907 4.906v1.125h18.032l.765-8.641M871.505 606.08c3.641-1.312 5.313-3.359 5.313-6.562 0-4.188-3.203-6.875-8.157-6.875-4.687 0-8.234 2.765-8.234 6.406 0 1.641 1.078 2.797 2.641 2.797 1.39 0 2.359-.969 2.359-2.406 0-.875-.328-1.391-1.25-2.032-.391-.281-.516-.453-.516-.718 0-1.125 2.313-2.329 4.594-2.329 2.891 0 4.406 1.797 4.406 5.204 0 3.718-1.515 5.671-4.359 5.671a24.85 24.85 0 01-1.641-.078c-.328-.031-.64-.031-.875-.031-.843 0-1.281.359-1.281 1.078 0 .672.391 1 1.281 1 .235 0 .547 0 .907-.047.812-.031 1.453-.031 1.89-.031 2.953 0 4.563 2.109 4.563 6.078 0 4.156-2 6.469-5.61 6.469-2.515 0-5.234-1.359-5.234-2.594 0-.359.078-.437.844-.875 1.109-.687 1.547-1.359 1.547-2.359 0-1.453-1.078-2.531-2.516-2.531-1.719 0-2.828 1.406-2.828 3.531 0 3.875 3.547 6.547 8.672 6.547 5.797 0 9.562-3.188 9.562-8.11 0-3.765-1.922-6.047-6.078-7.203M1026.21 593.643l-13.59 18.922v2.234h11.23v2.078c0 2.047 0 2.125-.23 2.484-.33.438-1.1.563-3.36.563h-.46v1.875h11.69v-1.875h-.15c-2.29 0-3.05-.125-3.36-.563-.25-.359-.25-.406-.25-2.484v-2.078h4.84v-2.234h-4.84v-10.922c0-5 0-5.125.2-8h-1.72m-2.36 18.922h-8.8l8.8-12.125v12.125M2189.42 613.158h-1.77l-.41 2.047c-.51 2.594-.82 2.828-3.31 2.828h-8.95c2.75-2.875 3.67-3.718 6.23-5.718 3.64-2.797 5.21-4.188 6.11-5.391 1.28-1.766 1.92-3.516 1.92-5.484 0-4.563-3.75-7.797-9-7.797-5.07 0-8.95 3.234-8.95 7.515 0 2.532 1.28 4.25 3.16 4.25 1.48 0 2.48-1 2.48-2.453 0-1-.56-1.906-1.4-2.265-1.47-.61-1.55-.688-1.55-1.204 0-.609.39-1.531.95-2.203 1-1.234 2.64-1.922 4.52-1.922 3.33 0 5.28 2.047 5.28 5.407 0 2.953-1.39 5.64-4.72 9.156-2.95 3.109-4.8 5.078-5.48 5.844-1.44 1.672-2.16 2.593-3.91 4.906v1.125h18.03l.77-8.641M1711.28 597.158c2.16.532 3.24.688 4.83.688 3.41 0 5.89-1.156 7.21-3.406.43-.719.6-1.11.6-1.438 0-.234-.09-.359-.32-.359-.13 0-.28.047-.52.156-1.97.844-3 1.047-5.33 1.047-2.54 0-4.15-.25-8.23-1.203-.16 3.359-.52 7.64-1.08 12.593-.84.891-1.12 1.407-1.12 2.047 0 .844.53 1.36 1.28 1.36 1.04 0 1.64-.844 1.79-2.438 1.41-1 2.74-1.437 4.33-1.437 3.6 0 5.72 2.718 5.72 7.312 0 4.156-1.33 7.594-5.95 7.594-2.41 0-4.89-1.234-4.89-2.469 0-.281.25-.609.72-.89 1.25-.75 1.6-1.282 1.6-2.36 0-1.39-1.07-2.469-2.53-2.469-1.59 0-2.87 1.469-2.87 3.36 0 2 1.15 4 2.97 5.234 1.36.875 2.95 1.313 5.08 1.313 6.28 0 10.23-3.672 10.23-9.547 0-5.438-3.59-9.078-9.05-9.078-1.72 0-2.95.281-5.15 1.187l.68-6.797M1210.09 597.158c2.16.532 3.23.688 4.83.688 3.4 0 5.89-1.156 7.2-3.406.44-.719.61-1.11.61-1.438 0-.234-.09-.359-.33-.359-.12 0-.28.047-.51.156-1.97.844-3 1.047-5.33 1.047-2.55 0-4.16-.25-8.24-1.203-.15 3.359-.51 7.64-1.07 12.593-.85.891-1.13 1.407-1.13 2.047 0 .844.53 1.36 1.28 1.36 1.05 0 1.64-.844 1.8-2.438 1.4-1 2.73-1.437 4.33-1.437 3.59 0 5.72 2.718 5.72 7.312 0 4.156-1.33 7.594-5.96 7.594-2.4 0-4.89-1.234-4.89-2.469 0-.281.25-.609.72-.89 1.25-.75 1.61-1.282 1.61-2.36 0-1.39-1.08-2.469-2.53-2.469-1.6 0-2.88 1.469-2.88 3.36 0 2 1.16 4 2.97 5.234 1.36.875 2.96 1.313 5.08 1.313 6.28 0 10.23-3.672 10.23-9.547 0-5.438-3.59-9.078-9.04-9.078-1.72 0-2.96.281-5.16 1.187l.69-6.797M1442.33 597.158c2.16.532 3.24.688 4.83.688 3.41 0 5.89-1.156 7.21-3.406.43-.719.61-1.11.61-1.438 0-.234-.1-.359-.33-.359-.13 0-.28.047-.52.156-1.97.844-3 1.047-5.33 1.047-2.54 0-4.15-.25-8.23-1.203-.16 3.359-.52 7.64-1.08 12.593-.84.891-1.12 1.407-1.12 2.047 0 .844.53 1.36 1.28 1.36 1.04 0 1.64-.844 1.79-2.438 1.41-1 2.74-1.437 4.33-1.437 3.6 0 5.72 2.718 5.72 7.312 0 4.156-1.33 7.594-5.95 7.594-2.41 0-4.89-1.234-4.89-2.469 0-.281.25-.609.72-.89 1.25-.75 1.61-1.282 1.61-2.36 0-1.39-1.08-2.469-2.54-2.469-1.59 0-2.87 1.469-2.87 3.36 0 2 1.16 4 2.97 5.234 1.36.875 2.95 1.313 5.08 1.313 6.28 0 10.23-3.672 10.23-9.547 0-5.438-3.59-9.078-9.05-9.078-1.72 0-2.95.281-5.15 1.187l.68-6.797M2028.73 606.08c3.64-1.312 5.31-3.359 5.31-6.562 0-4.188-3.2-6.875-8.16-6.875-4.69 0-8.23 2.765-8.23 6.406 0 1.641 1.08 2.797 2.64 2.797 1.39 0 2.36-.969 2.36-2.406 0-.875-.33-1.391-1.25-2.032-.39-.281-.52-.453-.52-.718 0-1.125 2.31-2.329 4.6-2.329 2.89 0 4.4 1.797 4.4 5.204 0 3.718-1.51 5.671-4.36 5.671-.36 0-1.04-.031-1.64-.078-.33-.031-.64-.031-.87-.031-.85 0-1.28.359-1.28 1.078 0 .672.39 1 1.28 1 .23 0 .54 0 .9-.047.82-.031 1.46-.031 1.89-.031 2.96 0 4.57 2.109 4.57 6.078 0 4.156-2 6.469-5.61 6.469-2.52 0-5.24-1.359-5.24-2.594 0-.359.08-.437.85-.875 1.11-.687 1.54-1.359 1.54-2.359 0-1.453-1.07-2.531-2.51-2.531-1.72 0-2.83 1.406-2.83 3.531 0 3.875 3.55 6.547 8.67 6.547 5.8 0 9.56-3.188 9.56-8.11 0-3.765-1.92-6.047-6.07-7.203M2189.42 1025.56h-1.77l-.41 2.05c-.51 2.59-.82 2.82-3.31 2.82h-8.95c2.75-2.87 3.67-3.72 6.23-5.72 3.64-2.79 5.21-4.18 6.11-5.39 1.28-1.76 1.92-3.51 1.92-5.48 0-4.56-3.75-7.8-9-7.8-5.07 0-8.95 3.24-8.95 7.52 0 2.53 1.28 4.25 3.16 4.25 1.48 0 2.48-1 2.48-2.45 0-1-.56-1.91-1.4-2.27-1.47-.61-1.55-.69-1.55-1.2 0-.61.39-1.53.95-2.21 1-1.23 2.64-1.92 4.52-1.92 3.33 0 5.28 2.05 5.28 5.41 0 2.95-1.39 5.64-4.72 9.15-2.95 3.11-4.8 5.08-5.48 5.85-1.44 1.67-2.16 2.59-3.91 4.9v1.13h18.03l.77-8.64M1711.28 1011.56c2.16.53 3.24.69 4.83.69 3.41 0 5.89-1.16 7.21-3.41.43-.72.6-1.11.6-1.44 0-.23-.09-.36-.32-.36-.13 0-.28.05-.52.16-1.97.84-3 1.05-5.33 1.05-2.54 0-4.15-.25-8.23-1.21-.16 3.36-.52 7.64-1.08 12.6-.84.89-1.12 1.4-1.12 2.04 0 .85.53 1.36 1.28 1.36 1.04 0 1.64-.84 1.79-2.43 1.41-1 2.74-1.44 4.33-1.44 3.6 0 5.72 2.72 5.72 7.31 0 4.16-1.33 7.59-5.95 7.59-2.41 0-4.89-1.23-4.89-2.46 0-.29.25-.61.72-.9 1.25-.75 1.6-1.28 1.6-2.35 0-1.4-1.07-2.47-2.53-2.47-1.59 0-2.87 1.47-2.87 3.36 0 2 1.15 4 2.97 5.23 1.36.88 2.95 1.31 5.08 1.31 6.28 0 10.23-3.67 10.23-9.54 0-5.44-3.59-9.08-9.05-9.08-1.72 0-2.95.28-5.15 1.19l.68-6.8M2605.37 1007.04c-1.36 1.64-5.03 2.88-8.72 2.96v1.73h3.51c2.33.03 2.57.27 2.49 2.52v16.03c0 2.04 0 2.12-.24 2.48-.32.39-1.07.56-3.32.56h-2.6v1.88h15.85v-1.88h-2.21c-2.25 0-3-.17-3.32-.56-.29-.36-.29-.4-.29-2.48v-16.52c0-2.23.1-4.12.29-6.72h-1.44M1873.77 1007.04l-13.59 18.92v2.24h11.23v2.08c0 2.04 0 2.12-.23 2.48-.33.44-1.1.56-3.36.56h-.46v1.88h11.69v-1.88h-.15c-2.29 0-3.05-.12-3.36-.56-.25-.36-.25-.4-.25-2.48v-2.08h4.84v-2.24h-4.84v-10.92c0-5 0-5.12.2-8h-1.72m-2.36 18.92h-8.8l8.8-12.12v12.12M1442.33 1011.56c2.16.53 3.24.69 4.83.69 3.41 0 5.89-1.16 7.21-3.41.43-.72.61-1.11.61-1.44 0-.23-.1-.36-.33-.36-.13 0-.28.05-.52.16-1.97.84-3 1.05-5.33 1.05-2.54 0-4.15-.25-8.23-1.21-.16 3.36-.52 7.64-1.08 12.6-.84.89-1.12 1.4-1.12 2.04 0 .85.53 1.36 1.28 1.36 1.04 0 1.64-.84 1.79-2.43 1.41-1 2.74-1.44 4.33-1.44 3.6 0 5.72 2.72 5.72 7.31 0 4.16-1.33 7.59-5.95 7.59-2.41 0-4.89-1.23-4.89-2.46 0-.29.25-.61.72-.9 1.25-.75 1.61-1.28 1.61-2.35 0-1.4-1.08-2.47-2.54-2.47-1.59 0-2.87 1.47-2.87 3.36 0 2 1.16 4 2.97 5.23 1.36.88 2.95 1.31 5.08 1.31 6.28 0 10.23-3.67 10.23-9.54 0-5.44-3.59-9.08-9.05-9.08-1.72 0-2.95.28-5.15 1.19l.68-6.8M1210.09 1011.56c2.16.53 3.23.69 4.83.69 3.4 0 5.89-1.16 7.2-3.41.44-.72.61-1.11.61-1.44 0-.23-.09-.36-.33-.36-.12 0-.28.05-.51.16-1.97.84-3 1.05-5.33 1.05-2.55 0-4.16-.25-8.24-1.21-.15 3.36-.51 7.64-1.07 12.6-.85.89-1.13 1.4-1.13 2.04 0 .85.53 1.36 1.28 1.36 1.05 0 1.64-.84 1.8-2.43 1.4-1 2.73-1.44 4.33-1.44 3.59 0 5.72 2.72 5.72 7.31 0 4.16-1.33 7.59-5.96 7.59-2.4 0-4.89-1.23-4.89-2.46 0-.29.25-.61.72-.9 1.25-.75 1.61-1.28 1.61-2.35 0-1.4-1.08-2.47-2.53-2.47-1.6 0-2.88 1.47-2.88 3.36 0 2 1.16 4 2.97 5.23 1.36.88 2.96 1.31 5.08 1.31 6.28 0 10.23-3.67 10.23-9.54 0-5.44-3.59-9.08-9.04-9.08-1.72 0-2.96.28-5.16 1.19l.69-6.8M2373.12 1007.04c-1.36 1.64-5.03 2.88-8.72 2.96v1.73h3.52c2.33.03 2.56.27 2.48 2.52v16.03c0 2.04 0 2.12-.23 2.48-.33.39-1.08.56-3.33.56h-2.59v1.88h15.84v-1.88h-2.2c-2.25 0-3-.17-3.33-.56-.28-.36-.28-.4-.28-2.48v-16.52c0-2.23.09-4.12.28-6.72h-1.44M2028.73 1020.48c3.64-1.31 5.31-3.36 5.31-6.56 0-4.19-3.2-6.88-8.16-6.88-4.69 0-8.23 2.77-8.23 6.41 0 1.64 1.08 2.8 2.64 2.8 1.39 0 2.36-.97 2.36-2.41 0-.88-.33-1.39-1.25-2.03-.39-.28-.52-.45-.52-.72 0-1.13 2.31-2.33 4.6-2.33 2.89 0 4.4 1.8 4.4 5.2 0 3.72-1.51 5.68-4.36 5.68-.36 0-1.04-.03-1.64-.08-.33-.03-.64-.03-.87-.03-.85 0-1.28.36-1.28 1.08 0 .67.39 1 1.28 1 .23 0 .54 0 .9-.05.82-.03 1.46-.03 1.89-.03 2.96 0 4.57 2.11 4.57 6.08 0 4.15-2 6.46-5.61 6.46-2.52 0-5.24-1.36-5.24-2.59 0-.36.08-.44.85-.87 1.11-.69 1.54-1.36 1.54-2.36 0-1.46-1.07-2.54-2.51-2.54-1.72 0-2.83 1.41-2.83 3.54 0 3.87 3.55 6.54 8.67 6.54 5.8 0 9.56-3.18 9.56-8.11 0-3.76-1.92-6.04-6.07-7.2M1026.21 1007.04l-13.59 18.92v2.24h11.23v2.08c0 2.04 0 2.12-.23 2.48-.33.44-1.1.56-3.36.56h-.46v1.88h11.69v-1.88h-.15c-2.29 0-3.05-.12-3.36-.56-.25-.36-.25-.4-.25-2.48v-2.08h4.84v-2.24h-4.84v-10.92c0-5 0-5.12.2-8h-1.72m-2.36 18.92h-8.8l8.8-12.12v12.12M559.876 1007.04c-1.36 1.64-5.032 2.88-8.719 2.96v1.73h3.516c2.328.03 2.562.27 2.484 2.52v16.03c0 2.04 0 2.12-.234 2.48-.329.39-1.079.56-3.329.56h-2.593v1.88h15.843v-1.88h-2.203c-2.25 0-3-.17-3.328-.56-.281-.36-.281-.4-.281-2.48v-16.52c0-2.23.094-4.12.281-6.72h-1.437M722.534 1025.56h-1.765l-.407 2.05c-.515 2.59-.828 2.82-3.312 2.82h-8.953c2.75-2.87 3.672-3.72 6.234-5.72 3.641-2.79 5.203-4.18 6.109-5.39 1.282-1.76 1.922-3.51 1.922-5.48 0-4.56-3.75-7.8-9-7.8-5.078 0-8.953 3.24-8.953 7.52 0 2.53 1.281 4.25 3.156 4.25 1.485 0 2.485-1 2.485-2.45 0-1-.563-1.91-1.406-2.27-1.469-.61-1.547-.69-1.547-1.2 0-.61.39-1.53.953-2.21 1-1.23 2.64-1.92 4.515-1.92 3.329 0 5.282 2.05 5.282 5.41 0 2.95-1.391 5.64-4.719 9.15-2.953 3.11-4.797 5.08-5.484 5.85-1.438 1.67-2.157 2.59-3.907 4.9v1.13h18.032l.765-8.64M871.505 1020.48c3.641-1.31 5.313-3.36 5.313-6.56 0-4.19-3.203-6.88-8.157-6.88-4.687 0-8.234 2.77-8.234 6.41 0 1.64 1.078 2.8 2.641 2.8 1.39 0 2.359-.97 2.359-2.41 0-.88-.328-1.39-1.25-2.03-.391-.28-.516-.45-.516-.72 0-1.13 2.313-2.33 4.594-2.33 2.891 0 4.406 1.8 4.406 5.2 0 3.72-1.515 5.68-4.359 5.68-.359 0-1.047-.03-1.641-.08-.328-.03-.64-.03-.875-.03-.843 0-1.281.36-1.281 1.08 0 .67.391 1 1.281 1 .235 0 .547 0 .907-.05.812-.03 1.453-.03 1.89-.03 2.953 0 4.563 2.11 4.563 6.08 0 4.15-2 6.46-5.61 6.46-2.515 0-5.234-1.36-5.234-2.59 0-.36.078-.44.844-.87 1.109-.69 1.547-1.36 1.547-2.36 0-1.46-1.078-2.54-2.516-2.54-1.719 0-2.828 1.41-2.828 3.54 0 3.87 3.547 6.54 8.672 6.54 5.797 0 9.562-3.18 9.562-8.11 0-3.76-1.922-6.04-6.078-7.2"/><path class="Bracket" d="M308.534 813.999c6.461-6.855 19.047-20.846 19.047-46.748 0-32.757-14.046-65.852-14.046-86.304 0-21.97 12.586-42.478 13.316-43.152v-.73c0-.394 0-.731-.337-1.068-.393 0-1.124 0-1.461.674-.337.394-19.778 19.778-19.778 49.277 0 31.633 12.586 53.94 12.586 95.294 0 7.922-3.259 20.508-12.249 31.69-.337 0-.337.674-.674 1.067 0 .337.337.73.674 1.068 8.99 11.125 12.249 23.71 12.249 31.633 0 41.354-12.586 63.66-12.586 95.294 0 29.161 19.44 48.94 19.778 49.277.337.73 1.068 1.067 1.46.73.338-.337.675-.73.338-1.068v-.73c-.73-.73-13.316-21.239-13.316-43.152 0-20.508 14.046-53.603 14.046-86.304 0-26.24-12.586-39.95-19.047-46.748"/></svg>
